<svg width="13" height="13" viewBox="0 0 13 13" fill="#000000" xmlns="http://www.w3.org/2000/svg">
<path fill-rule="evenodd" clip-rule="evenodd" d="M7.54297 1.7189C7.27697 0.626902 5.72297 0.626902 5.45697 1.7189C5.41726 1.88299 5.33936 2.03539 5.22963 2.16369C5.11989 2.29199 4.98141 2.39257 4.82546 2.45724C4.66951 2.52191 4.5005 2.54885 4.33217 2.53586C4.16384 2.52288 4.00096 2.47033 3.85677 2.3825C2.89637 1.7973 1.79737 2.8963 2.38257 3.8567C2.76057 4.4769 2.42527 5.2861 1.71967 5.4576C0.626972 5.7229 0.626972 7.2776 1.71967 7.5422C1.88381 7.58197 2.03623 7.65993 2.16453 7.76975C2.29283 7.87957 2.39338 8.01814 2.45799 8.17418C2.5226 8.33021 2.54945 8.4993 2.53634 8.66767C2.52323 8.83605 2.47055 8.99894 2.38257 9.1431C1.79737 10.1035 2.89637 11.2025 3.85677 10.6173C4.00093 10.5293 4.16383 10.4766 4.3322 10.4635C4.50057 10.4504 4.66966 10.4773 4.8257 10.5419C4.98173 10.6065 5.1203 10.707 5.23012 10.8353C5.33994 10.9636 5.41791 11.1161 5.45767 11.2802C5.72297 12.3729 7.27767 12.3729 7.54227 11.2802C7.58217 11.1162 7.66021 10.9638 7.77006 10.8356C7.8799 10.7074 8.01845 10.6069 8.17443 10.5423C8.33042 10.4777 8.49944 10.4509 8.66777 10.4639C8.8361 10.4769 8.99898 10.5295 9.14317 10.6173C10.1036 11.2025 11.2026 10.1035 10.6174 9.1431C10.5296 8.99891 10.477 8.83603 10.464 8.6677C10.4509 8.49938 10.4778 8.33035 10.5424 8.17436C10.607 8.01838 10.7075 7.87983 10.8357 7.76999C10.9639 7.66014 11.1162 7.5821 11.2803 7.5422C12.373 7.2769 12.373 5.7222 11.2803 5.4576C11.1161 5.41784 10.9637 5.33987 10.8354 5.23005C10.7071 5.12023 10.6066 4.98166 10.542 4.82563C10.4773 4.66959 10.4505 4.5005 10.4636 4.33213C10.4767 4.16376 10.5294 4.00086 10.6174 3.8567C11.2026 2.8963 10.1036 1.7973 9.14317 2.3825C8.99901 2.47048 8.83612 2.52317 8.66774 2.53627C8.49937 2.54938 8.33028 2.52253 8.17425 2.45792C8.01821 2.39331 7.87964 2.29276 7.76982 2.16446C7.66 2.03616 7.58204 1.88374 7.54227 1.7196L7.54297 1.7189ZM6.49997 8.5999C7.05693 8.5999 7.59107 8.37865 7.9849 7.98483C8.37872 7.591 8.59997 7.05686 8.59997 6.4999C8.59997 5.94295 8.37872 5.4088 7.9849 5.01498C7.59107 4.62115 7.05693 4.3999 6.49997 4.3999C5.94302 4.3999 5.40887 4.62115 5.01505 5.01498C4.62122 5.4088 4.39997 5.94295 4.39997 6.4999C4.39997 7.05686 4.62122 7.591 5.01505 7.98483C5.40887 8.37865 5.94302 8.5999 6.49997 8.5999Z" fill="black"/>
</svg>
