<svg width="40" height="40" viewBox="0 0 40 40" fill="none" xmlns="http://www.w3.org/2000/svg">
<path d="M25.2487 21.0618L25.2487 21.0619L33.03 30.5098C33.03 30.5098 33.03 30.5099 33.03 30.5099C35.9826 34.0956 33.4309 39.5 28.7867 39.5C28.1385 39.5 27.501 39.3499 26.9264 39.0602L26.9249 39.0595L25.965 38.5795C24.1129 37.6534 22.0707 37.1712 20 37.1712C17.9293 37.1712 15.8871 37.6534 14.0351 38.5795L13.0751 39.0595L13.0736 39.0602C12.499 39.3499 11.8615 39.5 11.2133 39.5C6.56907 39.5 4.01747 34.0956 6.97252 30.51L6.97267 30.5098L14.7513 21.0618C15.3892 20.2871 16.1906 19.6632 17.098 19.2349C18.0055 18.8065 18.9965 18.5844 20 18.5844C21.0035 18.5844 21.9945 18.8065 22.902 19.2349C23.8094 19.6632 24.6108 20.2871 25.2487 21.0618ZM9.91565 1.91565C10.8221 1.00922 12.0515 0.5 13.3333 0.5C14.6152 0.5 15.8446 1.00922 16.751 1.91565C17.6574 2.82208 18.1667 4.05145 18.1667 5.33333V8C18.1667 9.28188 17.6574 10.5113 16.751 11.4177C15.8446 12.3241 14.6152 12.8333 13.3333 12.8333C12.0515 12.8333 10.8221 12.3241 9.91565 11.4177C9.00922 10.5113 8.5 9.28188 8.5 8V5.33333C8.5 4.05145 9.00922 2.82208 9.91565 1.91565ZM23.249 1.91565C24.1554 1.00922 25.3848 0.5 26.6667 0.5C27.9485 0.5 29.1779 1.00922 30.0843 1.91565C30.9908 2.82208 31.5 4.05145 31.5 5.33333V8C31.5 9.28188 30.9908 10.5113 30.0843 11.4177C29.1779 12.3241 27.9485 12.8333 26.6667 12.8333C25.3848 12.8333 24.1554 12.3241 23.249 11.4177C22.3426 10.5113 21.8333 9.28188 21.8333 8V5.33333C21.8333 4.05145 22.3426 2.82208 23.249 1.91565ZM1.91565 15.249C2.82208 14.3426 4.05145 13.8333 5.33333 13.8333C6.61521 13.8333 7.84459 14.3426 8.75102 15.249C9.65744 16.1554 10.1667 17.3848 10.1667 18.6667V20C10.1667 21.2819 9.65744 22.5113 8.75102 23.4177C7.84459 24.3241 6.61521 24.8333 5.33333 24.8333C4.05145 24.8333 2.82208 24.3241 1.91565 23.4177C1.00922 22.5113 0.5 21.2819 0.5 20V18.6667C0.5 17.3848 1.00922 16.1554 1.91565 15.249ZM31.249 15.249C32.1554 14.3426 33.3848 13.8333 34.6667 13.8333C35.9485 13.8333 37.1779 14.3426 38.0844 15.249C38.9908 16.1554 39.5 17.3848 39.5 18.6667V20C39.5 21.2819 38.9908 22.5113 38.0844 23.4177C37.1779 24.3241 35.9485 24.8333 34.6667 24.8333C33.3848 24.8333 32.1554 24.3241 31.249 23.4177C30.3426 22.5113 29.8333 21.2819 29.8333 20V18.6667C29.8333 17.3848 30.3426 16.1554 31.249 15.249Z" fill="white" stroke="#FFDF6D"/>
</svg>
