<?xml version="1.0" encoding="utf-8"?>
<!-- Generator: Adobe Illustrator 27.5.0, SVG Export Plug-In . SVG Version: 6.00 Build 0)  -->
<svg version="1.1" xmlns="http://www.w3.org/2000/svg" xmlns:xlink="http://www.w3.org/1999/xlink" x="0px" y="0px"
	 viewBox="0 0 600 500" style="enable-background:new 0 0 600 500;" xml:space="preserve">
<g id="BACKGROUND">
	<g>
		
			<rect x="50" y="-50" transform="matrix(-1.836970e-16 1 -1 -1.836970e-16 550 -50)" style="fill:#FFFFFF;" width="500" height="600"/>
	</g>
</g>
<g id="OBJECTS">
	<g>
		<path style="fill:#FFD080;" d="M539.653,435.082H417.759c-11.749,0-21.274-9.525-21.274-21.274V291.914
			c0-11.749,9.525-21.274,21.274-21.274h121.894c11.749,0,21.274,9.525,21.274,21.274v121.894
			C560.927,425.558,551.402,435.082,539.653,435.082z"/>
		<g>
			<g>
				<path style="fill:#703F58;" d="M487.131,404.013c-28.09-1.221-41.629,6.612-41.73,31.069h69.646
					C516.213,421.017,507.754,404.909,487.131,404.013z"/>
				<path style="fill:#FFFFFF;" d="M499.216,435.082c-1.864-8.546-9.427-14.944-18.48-14.944c-9.052,0-16.616,6.398-18.48,14.944
					H499.216z"/>
			</g>
			<g>
				<g>
					<path style="fill:#703F58;" d="M405.064,371.754c-0.903-53.13,27.156-70.052,86.58-67.469
						c73.071,3.176,72.57,98.398,24.621,107.368C480.464,418.35,405.965,424.818,405.064,371.754z"/>
				</g>
				<path style="fill:none;stroke:#482725;stroke-width:2;stroke-miterlimit:10;" d="M467.425,316.436c0,0,0.631,8.945,7.968,10.292
					"/>
				<path style="fill:none;stroke:#482725;stroke-width:2;stroke-miterlimit:10;" d="M474.891,315.713c0,0,0.187,6.542,6.822,9.627"
					/>
				<path style="fill:none;stroke:#482725;stroke-width:2;stroke-miterlimit:10;" d="M483.494,315.853c0,0,0.187,6.542,6.822,9.627"
					/>
				<path style="fill:#FFFFFF;" d="M434.864,333.843c35.586-11.627,44.395,21.845,44.395,21.845s4.58-29.596,38.433-23.665
					c37.79,6.621,48.242,83.211-44.55,80.084C388.753,409.263,404.706,343.696,434.864,333.843z"/>
				<circle style="fill:#FF7777;" cx="428.254" cy="377.872" r="14.943"/>
				<circle style="fill:#FF7777;" cx="525.678" cy="378.505" r="14.943"/>
				<path style="fill:none;stroke:#482725;stroke-width:2;stroke-miterlimit:10;" d="M410.46,391.528
					c0,0,9.672,24.647,52.414,23.087"/>
				<g>
					<path style="fill:#FFFFFF;" d="M450.574,368.57L450.574,368.57c-7.57,0.198-13.892-5.038-14.12-11.695l-0.22-6.382
						c-0.229-6.657,5.722-12.214,13.291-12.413l0,0c7.569-0.199,13.891,5.038,14.121,11.694l0.219,6.382
						C464.094,362.815,458.143,368.372,450.574,368.57"/>
					<path style="fill:none;stroke:#482725;stroke-width:1.5;stroke-miterlimit:10;" d="M463.29,349.551
						c0,0-0.712-12.602-15.235-11.281c-13.248,1.205-12.131,14.742-11.458,16.833"/>
					<path style="fill:#482725;" d="M463.644,349.776c-0.123-3.602-2.04-6.779-4.965-8.913c-1.093-0.316-2.241-0.479-3.426-0.448
						c-6.678,0.175-11.89,6.19-11.642,13.434c0.25,7.245,5.866,12.976,12.545,12.801c0.606-0.016,1.195-0.095,1.774-0.204
						c3.703-2.244,6.081-6.039,5.934-10.288L463.644,349.776z"/>
				</g>
				<g>
					<path style="fill:#FFFFFF;" d="M506.392,366.421L506.392,366.421c7.755-0.057,14.094-5.639,14.158-12.466l0.062-6.544
						c0.065-6.827-6.169-12.314-13.923-12.257l0,0c-7.755,0.057-14.093,5.639-14.159,12.465l-0.062,6.545
						C492.404,360.992,498.638,366.479,506.392,366.421"/>
					<path style="fill:#482725;" d="M492.533,347.62c0.034-3.694,1.916-7.014,4.856-9.301c1.111-0.361,2.283-0.568,3.496-0.577
						c6.842-0.051,12.331,5.931,12.261,13.36c-0.071,7.43-5.675,13.493-12.517,13.545c-0.621,0.004-1.226-0.057-1.821-0.148
						c-3.848-2.171-6.379-5.976-6.337-10.334L492.533,347.62z"/>
					<path style="fill:none;stroke:#482725;stroke-width:1.5;stroke-miterlimit:10;" d="M493.548,345.155
						c0,0,1.799-11.991,16.548-9.713c11.249,1.738,11.152,15.109,10.312,17.147"/>
				</g>
				<path style="fill:none;stroke:#482725;stroke-width:2;stroke-miterlimit:10;" d="M502.646,414.295
					c0,0,39.676-2.626,44.051-31.507"/>
				<ellipse style="fill:#FFD080;" cx="479.025" cy="362.98" rx="15.978" ry="11.203"/>
				<path style="fill:#FFA844;" d="M463.052,362.906c0,0.025-0.005,0.048-0.005,0.073c0,6.187,7.153,11.203,15.978,11.203
					c8.824,0,15.978-5.016,15.978-11.203c0-0.271-0.031-0.536-0.058-0.802c-4.232-1.882-9.492-2.997-15.193-2.997
					C473.351,359.18,467.51,360.589,463.052,362.906z"/>
				<path style="fill:none;stroke:#482725;stroke-width:1.5;stroke-miterlimit:10;" d="M463.047,362.979c0,0,16.804-9.293,31.955,0"
					/>
			</g>
		</g>
	</g>
	<g>
		<path style="fill:#FF7777;" d="M356.528,435.082H234.634c-11.749,0-21.274-9.525-21.274-21.274V291.914
			c0-11.749,9.525-21.274,21.274-21.274h121.894c11.749,0,21.274,9.525,21.274,21.274v121.894
			C377.802,425.558,368.277,435.082,356.528,435.082z"/>
		<g>
			<g>
				<path style="fill:#D9D9D9;" d="M305.189,398.19c-33.354-1.45-49.43,7.851-49.551,36.892h82.698
					C339.721,418.38,329.676,399.255,305.189,398.19z"/>
				<path style="fill:#FFFFFF;" d="M319.539,435.082c-2.213-10.148-11.194-17.745-21.943-17.745
					c-10.749,0-19.73,7.597-21.943,17.745H319.539z"/>
			</g>
			<g>
				<path style="fill:#D9D9D9;" d="M257.061,309.771c0,0-9.833-46.296,13.11-52.851c20.257-5.788,24.582,30.727,20.485,49.164"/>
				<path style="fill:#FF7777;" d="M266.074,309.362c0,0-9.013-38.102,6.555-40.15c12.22-1.608,9.833,37.283,9.833,37.283
					L266.074,309.362z"/>
				<path style="fill:none;stroke:#482725;stroke-width:1.5;stroke-miterlimit:10;" d="M265.445,305.767
					c0,0-8.027-33.6,7.184-36.555"/>
				<path style="fill:#D9D9D9;" d="M295.775,310.541c0,0-9.833-46.296,13.11-52.851c20.257-5.788,24.582,30.727,20.485,49.164"/>
				<path style="fill:#FF7777;" d="M302.74,305.215c0,0-5.326-36.053,9.013-35.644c14.339,0.41,6.555,40.56,6.555,40.56
					L302.74,305.215z"/>
				<path style="fill:none;stroke:#482725;stroke-width:1.5;stroke-miterlimit:10;" d="M302.697,277.832
					c0,0,2.64-10.113,10.928-8.586c9.887,1.821,6.245,36.426,6.245,36.426"/>
				<g>
					<path style="fill:#D9D9D9;" d="M221.837,367.191c-0.903-53.13,27.156-70.052,86.58-67.469
						c73.071,3.176,72.57,98.398,24.621,107.368C297.237,413.787,222.738,420.255,221.837,367.191z"/>
				</g>
				<path style="fill:none;stroke:#482725;stroke-width:2;stroke-miterlimit:10;" d="M270.694,301.509c0,0,26.539-5.984,45.793-0.26
					"/>
				<path style="fill:#FFFFFF;" d="M320.229,310.921c5.125-6.375,17.042,1.837,13.407,7.08
					C329.801,323.531,315.067,317.343,320.229,310.921z"/>
				<path style="fill:#FFFFFF;" d="M270.518,311.837c-5.125-6.375-17.042,1.837-13.407,7.08
					C260.946,324.447,275.68,318.258,270.518,311.837z"/>
				<circle style="fill:#FF7777;" cx="245.027" cy="374.73" r="14.943"/>
				<circle style="fill:#FF7777;" cx="341.882" cy="374.795" r="14.943"/>
				<path style="fill:none;stroke:#482725;stroke-width:2;stroke-miterlimit:10;" d="M227.233,386.965
					c0,0,9.671,24.647,52.413,23.087"/>
				<g>
					<path style="fill:#FFFFFF;" d="M267.347,364.007L267.347,364.007c-7.57,0.198-13.892-5.038-14.12-11.695l-0.22-6.382
						c-0.229-6.657,5.722-12.214,13.291-12.413l0,0c7.569-0.199,13.891,5.038,14.121,11.694l0.219,6.382
						C280.867,358.252,274.916,363.809,267.347,364.007"/>
					<path style="fill:#482725;" d="M280.417,345.213c-0.123-3.602-2.04-6.779-4.965-8.913c-1.093-0.316-2.241-0.479-3.426-0.448
						c-6.678,0.175-11.891,6.19-11.642,13.434c0.25,7.245,5.866,12.976,12.545,12.801c0.606-0.016,1.195-0.095,1.774-0.204
						c3.703-2.244,6.081-6.039,5.934-10.288L280.417,345.213z"/>
				</g>
				<g>
					<path style="fill:#FFFFFF;" d="M322.989,362.07L322.989,362.07c7.745,0.4,14.402-4.798,14.869-11.609l0.448-6.529
						c0.468-6.811-5.432-12.656-13.176-13.056l0,0c-7.744-0.4-14.401,4.798-14.869,11.609l-0.447,6.53
						C309.345,355.826,315.244,361.671,322.989,362.07"/>
					<path style="fill:#482725;" d="M310.262,342.484c0.252-3.686,2.326-6.889,5.395-8.999c1.131-0.295,2.312-0.432,3.524-0.37
						c6.833,0.353,11.96,6.647,11.452,14.059c-0.509,7.412-6.461,13.135-13.294,12.783c-0.62-0.032-1.221-0.129-1.809-0.255
						c-3.714-2.395-6.016-6.342-5.717-10.689L310.262,342.484z"/>
				</g>
				
					<ellipse transform="matrix(0.9992 -0.0411 0.0411 0.9992 -14.7294 12.4993)" style="fill:#FFFFFF;" cx="296.538" cy="364.375" rx="20.72" ry="17.347"/>
				<path style="fill:#FFFFFF;" d="M289.535,365.123c0,0-0.615,9.722,3.619,11.657c4.234,1.935,10.902,1.368,9.745-12.319
					c0,0-5.884,0.149-6.786-1.568C296.112,362.893,293.779,365.441,289.535,365.123z"/>
				<path style="fill:none;stroke:#482725;stroke-miterlimit:10;" d="M289.369,365.063c0,0-1.102,13.275,7.198,12.447
					c7.941-0.793,6.464-11.79,6.464-11.79"/>
				<path style="fill:none;stroke:#482725;stroke-miterlimit:10;" d="M296.316,372.623c0,0-0.393-8.69,0.189-10.025"/>
				<path style="fill:none;stroke:#482725;stroke-width:1.5;stroke-miterlimit:10;" d="M296.019,356.384c0,0,0.242,3.24,0.093,6.509
					"/>
				<g>
					<path style="fill:none;stroke:#482725;stroke-width:1.5;stroke-miterlimit:10;" d="M285.31,360.273c0,0,0.911,4.318,4.225,4.85
						c2.753,0.442,4.685-1.071,5.724-2.225c0.487-0.541,1.297-0.558,1.793-0.026c1.092,1.172,3.129,2.659,5.847,1.589
						c4.18-1.646,3.804-4.489,3.804-4.489"/>
					<path style="fill:none;stroke:#482725;stroke-miterlimit:10;" d="M284.557,361.454c0,0,0.214-1.877,2.182-1.316"/>
					<path style="fill:none;stroke:#482725;stroke-miterlimit:10;" d="M305.332,360.33c0,0,1.682-1.023,2.608,0.605"/>
				</g>
				<path style="fill:none;stroke:#482725;stroke-width:2;stroke-miterlimit:10;" d="M319.419,409.732
					c0,0,39.676-2.626,44.051-31.507"/>
				<g>
					<path style="fill:#FF7777;" d="M303.685,351.052c-1.299-3.958-15.758-3.783-16.001,0.866c-0.243,4.648,4.057,7.394,8.637,7.456
						C300.357,359.428,304.984,355.01,303.685,351.052z"/>
					<path style="fill:none;stroke:#F2FFEA;stroke-miterlimit:10;" d="M297.659,349.632c-1.345-0.113-3.046-0.082-4.785,0.406"/>
					<path style="fill:none;stroke:#F2FFEA;stroke-miterlimit:10;" d="M300.413,350.122c0,0-0.587-0.187-1.539-0.341"/>
				</g>
			</g>
		</g>
	</g>
	<g>
		<path style="fill:#BB8280;" d="M173.403,435.082H51.509c-11.749,0-21.274-9.525-21.274-21.274V291.914
			c0-11.749,9.525-21.274,21.274-21.274h121.894c11.749,0,21.274,9.525,21.274,21.274v121.894
			C194.677,425.558,185.152,435.082,173.403,435.082z"/>
		<g>
			<g>
				<path style="fill:#88D7B5;" d="M123.173,398.19c-33.354-1.45-49.43,7.851-49.551,36.892h82.698
					C157.705,418.38,147.661,399.255,123.173,398.19z"/>
				<path style="fill:#FFD080;" d="M137.523,435.082c-2.213-10.148-11.194-17.745-21.943-17.745
					c-10.749,0-19.73,7.597-21.943,17.745H137.523z"/>
			</g>
			<g>
				<g>
					<path style="fill:#88D7B5;" d="M42.184,375.31c-2.481-53.08,29.659-61.872,89.083-59.289
						c73.071,3.176,67.705,82.098,19.756,91.068C115.222,413.787,44.382,422.328,42.184,375.31z"/>
				</g>
				<path style="fill:none;stroke:#482725;stroke-width:1.5;stroke-miterlimit:10;" d="M109.935,340.622
					c0,0,0.23,13.78,3.904,14.928c3.675,1.148,3.904-14.928,3.904-14.928"/>
				<g>
					<ellipse style="fill:#88D7B5;" cx="145.583" cy="324.88" rx="28.106" ry="28.396"/>
				</g>
				<g>
					<path style="fill:#FFFFFF;" d="M144.859,343.965L144.859,343.965c9.562,0.251,17.548-6.363,17.836-14.773l0.278-8.061
						c0.29-8.409-7.228-15.429-16.789-15.679l0,0c-9.561-0.251-17.547,6.363-17.837,14.772l-0.277,8.061
						C127.781,336.695,135.297,343.714,144.859,343.965"/>
					<path style="fill:#482725;" d="M128.349,320.224c0.155-4.55,2.577-8.563,6.271-11.259c1.381-0.399,2.831-0.605,4.328-0.566
						c8.436,0.221,15.02,7.819,14.706,16.969c-0.315,9.151-7.41,16.391-15.846,16.17c-0.766-0.02-1.51-0.121-2.241-0.258
						c-4.678-2.835-7.681-7.628-7.496-12.995L128.349,320.224z"/>
				</g>
				<g>
					<ellipse style="fill:#88D7B5;" cx="81.453" cy="323.651" rx="28.106" ry="28.396"/>
				</g>
				<path style="fill:none;stroke:#482725;stroke-width:2;stroke-miterlimit:10;" d="M56.107,311.82c0,0,4.627-16.193,24.125-17.185
					c19.498-0.991,28.421,15.863,28.091,22.473l11.236-0.331c0,0,5.618-24.455,29.743-20.82"/>
				<circle style="fill:#FF7777;" cx="63.012" cy="363.12" r="14.943"/>
				<circle style="fill:#FF7777;" cx="159.867" cy="363.185" r="14.943"/>
				<path style="fill:none;stroke:#482725;stroke-width:2;stroke-miterlimit:10;" d="M45.218,386.965
					c0,0,6.793,27.263,52.414,23.087"/>
				<g>
					<path style="fill:#FFFFFF;" d="M82.176,342.735L82.176,342.735c-9.562,0.251-17.548-6.363-17.836-14.773l-0.278-8.061
						c-0.29-8.409,7.228-15.429,16.789-15.679l0,0c9.561-0.251,17.547,6.363,17.837,14.772l0.277,8.061
						C99.255,335.465,91.738,342.485,82.176,342.735"/>
					<path style="fill:#482725;" d="M98.686,318.995c-0.155-4.55-2.577-8.563-6.271-11.259c-1.381-0.399-2.831-0.605-4.328-0.566
						c-8.436,0.221-15.02,7.818-14.706,16.969c0.315,9.151,7.41,16.391,15.846,16.17c0.766-0.021,1.51-0.121,2.241-0.258
						c4.678-2.835,7.681-7.628,7.496-12.995L98.686,318.995z"/>
				</g>
				<path style="fill:none;stroke:#482725;stroke-width:2;stroke-miterlimit:10;" d="M137.404,409.732
					c0,0,42.223-3.926,46.599-32.807"/>
			</g>
		</g>
	</g>
	<g>
		<path style="fill:#BB8280;" d="M539.653,250.616H417.759c-11.749,0-21.274-9.525-21.274-21.274V107.449
			c0-11.749,9.525-21.274,21.274-21.274h121.894c11.749,0,21.274,9.525,21.274,21.274v121.894
			C560.927,241.092,551.402,250.616,539.653,250.616z"/>
		<g>
			<g>
				<path style="fill:#FF9B5A;" d="M492.155,213.725c-33.354-1.45-49.43,7.851-49.551,36.892h82.698
					C526.687,233.915,516.643,214.789,492.155,213.725z"/>
				<path style="fill:#FFD080;" d="M506.505,250.616c-2.213-10.148-11.194-17.745-21.943-17.745
					c-10.749,0-19.73,7.597-21.943,17.745H506.505z"/>
			</g>
			<g>
				<path style="fill:#FF9B5A;" d="M526.878,130.75c0,0,14.455-31.148,42.874-24.749c0,0,1.779,42.159-37.773,35.525"/>
				<path style="fill:#FFD080;" d="M531.59,136.372c0,0,26.963-26.404,35.97-27.575c0,0,0.662,30.725-29.546,32.153L531.59,136.372z
					"/>
				<path style="fill:none;stroke:#482725;stroke-width:2;stroke-miterlimit:10;" d="M567.56,108.798
					c0,0-15.417,3.314-31.178,24.448"/>
				<path style="fill:#FF9B5A;" d="M434.085,132.957c0,0-14.254-31.241-42.714-25.025c0,0-2.05,42.147,37.543,35.767"/>
				<path style="fill:#FFD080;" d="M429.337,138.549c0,0-26.792-26.577-35.792-27.806c0,0-0.86,30.72,29.339,32.343L429.337,138.549
					z"/>
				<path style="fill:#B03B24;" d="M490.524,119.831c0,0-1.712-8.35,5.238-16.904c0,0-6.994-16.135-0.312-18.541
					s8.553,10.691,8.553,10.691l7.751-9.088c0,0-3.757-18.375,0.673-20.679c5.952-3.095,7.142,13.094,7.142,13.094
					s11.162-15.402,17.31-8.453s-21.65,29.669-21.65,29.669s18.71-5.613,18.71,1.604c0,7.217-24.59,8.82-24.59,8.82l-4.277,10.157
					L490.524,119.831z"/>
				<path style="fill:none;stroke:#482725;stroke-width:2;stroke-miterlimit:10;" d="M490.692,114.232c0,0-1.412-7.644,5.069-11.305
					c0,0-7.021-17.163-0.189-19.603c6.832-2.44,8.43,11.753,8.43,11.753l7.751-9.088"/>
				<path style="fill:#B03B24;" d="M465.696,122.023c0,0,2.446-8.074-3.625-17.134c0,0,8.36-15.266,1.993-18.244
					c-6.367-2.978-9.401,9.759-9.401,9.759l-6.813-9.661c0,0,5.373-17.767,1.217-20.44c-5.584-3.591-8.229,12.255-8.229,12.255
					s-9.6-16.194-16.29-9.904c-6.69,6.29,18.639,31.207,18.639,31.207s-17.929-7.232-18.585-0.12
					c-0.656,7.112,23.432,10.928,23.432,10.928l3.291,10.398L465.696,122.023z"/>
				<path style="fill:none;stroke:#482725;stroke-width:2;stroke-miterlimit:10;" d="M443.187,99.861
					c0,0-23.783-24.893-18.639-31.207c5.143-6.314,16.29,9.904,16.29,9.904s0.877-15.851,8.229-12.255
					c4.536,2.219-0.995,19.95-0.995,19.95l6.591,10.151"/>
				<g>
					<path style="fill:#FF9B5A;" d="M408.804,182.725c-0.903-53.13,27.156-70.052,86.581-67.469
						c73.071,3.176,72.57,98.398,24.621,107.368C484.204,229.321,409.705,235.789,408.804,182.725z"/>
				</g>
				<path style="fill:none;stroke:#482725;stroke-width:2;stroke-miterlimit:10;" d="M435.928,123.33
					c0,0,46.405-20.321,89.171-0.303"/>
				<path style="fill:#FFD080;" d="M512.793,145.14c-25.772,7.863-24.461,35.818-24.461,35.818h-7.863
					c-4.368-26.645-23.699-44.102-49.359-32.324c-13.704,6.291-19.658,17.429-22.217,26.77c-0.089,2.368-0.133,4.79-0.09,7.321
					c0.901,53.064,75.401,46.597,111.202,39.899c25.65-4.798,37.714-34.277,32.209-61.145
					C541.674,148.693,526.438,140.977,512.793,145.14z"/>
				<path style="fill:none;stroke:#482725;stroke-width:2;stroke-miterlimit:10;" d="M421.694,134.981
					c0,0-16.325,18.83-12.89,47.744"/>
				
					<ellipse transform="matrix(0.1594 -0.9872 0.9872 0.1594 168.1558 592.4678)" style="fill:#FF7777;" cx="431.994" cy="197.487" rx="14.943" ry="14.943"/>
				<circle style="fill:#FF7777;" cx="528.849" cy="197.552" r="14.943"/>
				<path style="fill:none;stroke:#482725;stroke-width:2;stroke-miterlimit:10;" d="M414.2,202.499c0,0,9.671,24.647,52.413,23.087
					"/>
				<g>
					<path style="fill:#FFFFFF;" d="M454.313,186.764L454.313,186.764c-7.57,0.198-13.892-5.038-14.12-11.695l-0.22-6.382
						c-0.229-6.657,5.722-12.214,13.291-12.413l0,0c7.569-0.198,13.891,5.038,14.12,11.694l0.219,6.382
						C467.834,181.009,461.883,186.566,454.313,186.764"/>
					<path style="fill:#482725;" d="M467.383,167.97c-0.123-3.602-2.04-6.779-4.965-8.913c-1.093-0.316-2.241-0.479-3.426-0.448
						c-6.678,0.175-11.891,6.19-11.642,13.434c0.25,7.245,5.866,12.976,12.545,12.801c0.606-0.016,1.195-0.096,1.774-0.204
						c3.703-2.244,6.081-6.039,5.934-10.288L467.383,167.97z"/>
				</g>
				<g>
					<path style="fill:#FFFFFF;" d="M509.955,184.827L509.955,184.827c7.745,0.4,14.402-4.798,14.869-11.609l0.448-6.529
						c0.468-6.811-5.432-12.657-13.177-13.056l0,0c-7.744-0.4-14.401,4.798-14.869,11.609l-0.447,6.53
						C496.311,178.583,502.211,184.428,509.955,184.827"/>
					<path style="fill:#482725;" d="M497.228,165.242c0.252-3.686,2.326-6.889,5.396-8.999c1.131-0.295,2.312-0.432,3.524-0.369
						c6.833,0.353,11.96,6.647,11.452,14.059c-0.509,7.412-6.461,13.135-13.294,12.783c-0.62-0.032-1.221-0.129-1.809-0.256
						c-3.714-2.395-6.016-6.342-5.717-10.689L497.228,165.242z"/>
				</g>
				<path style="fill:none;stroke:#482725;stroke-width:2;stroke-miterlimit:10;" d="M506.386,225.266
					c0,0,39.676-2.626,44.052-31.507"/>
				<g>
					<path style="fill:#482725;" d="M492.729,177.296c-1.641-5-19.904-4.778-20.211,1.094c-0.307,5.872,5.125,9.34,10.91,9.418
						C488.526,187.876,494.37,182.296,492.729,177.296z"/>
					<path style="fill:none;stroke:#F2FFEA;stroke-miterlimit:10;" d="M485.118,175.502c-1.699-0.143-3.848-0.103-6.044,0.513"/>
					<path style="fill:none;stroke:#F2FFEA;stroke-miterlimit:10;" d="M488.596,176.122c0,0-0.742-0.236-1.944-0.431"/>
				</g>
				<path style="fill:none;stroke:#482725;stroke-width:1.5;stroke-miterlimit:10;" d="M483.431,184.707c0,0,0.242,3.24,0.093,6.509
					"/>
				<g>
					<path style="fill:none;stroke:#482725;stroke-width:1.5;stroke-miterlimit:10;" d="M472.722,188.596
						c0,0,0.911,4.318,4.225,4.849c2.753,0.442,4.685-1.071,5.724-2.225c0.487-0.541,1.297-0.558,1.793-0.026
						c1.092,1.171,3.129,2.659,5.847,1.589c4.18-1.646,3.804-4.49,3.804-4.49"/>
					<path style="fill:none;stroke:#482725;stroke-miterlimit:10;" d="M471.969,189.776c0,0,0.214-1.877,2.182-1.316"/>
					<path style="fill:none;stroke:#482725;stroke-miterlimit:10;" d="M492.744,188.652c0,0,1.682-1.023,2.608,0.605"/>
				</g>
			</g>
		</g>
	</g>
	<g>
		<path style="fill:#D4A7A3;" d="M356.528,250.668H234.634c-11.749,0-21.274-9.525-21.274-21.274V107.5
			c0-11.749,9.525-21.274,21.274-21.274h121.894c11.749,0,21.274,9.525,21.274,21.274v121.894
			C377.802,241.143,368.277,250.668,356.528,250.668z"/>
		<g>
			<g>
				<path style="fill:#FFA844;" d="M305.194,213.776c-33.354-1.45-49.43,7.851-49.551,36.892h82.698
					C339.726,233.966,329.682,214.841,305.194,213.776z"/>
				<path style="fill:#FFD080;" d="M318.072,250.668c-2.065-9.467-10.443-16.554-20.47-16.554c-10.028,0-18.406,7.087-20.47,16.554
					H318.072z"/>
			</g>
			<g>
				<path style="fill:#FFA844;" d="M335.603,129.586c0,0-2.449-18.195,12.947-18.895c15.396-0.7,27.993,22.394,0,27.993"/>
				<path style="fill:#B03B24;" d="M340.202,129.801c0,0-2.028-13.689,9.38-12.929c11.408,0.761,9.38,15.464-2.788,18.506
					L340.202,129.801z"/>
				<path style="fill:#FFA844;" d="M255.985,127.562c0,0,2.449-18.196-12.947-18.895c-15.396-0.7-27.993,22.395,0,27.993"/>
				<path style="fill:#B03B24;" d="M251.386,127.776c0,0,2.028-13.689-9.38-12.929s-9.38,15.464,2.788,18.506L251.386,127.776z"/>
				<g>
					<path style="fill:#FFA844;" d="M221.842,182.776c-0.903-53.13,27.156-70.052,86.58-67.469
						c73.071,3.176,72.57,98.398,24.621,107.368C297.243,229.373,222.743,235.84,221.842,182.776z"/>
				</g>
				<g>
					<path style="fill:#B03B24;" d="M295.325,150.76c8.404,0.96,9.609-22.786,7.722-35.633c-6.272-0.15-12.151-0.046-17.682,0.302
						C284.747,127.334,286.844,149.791,295.325,150.76z"/>
					<path style="fill:#B03B24;" d="M275.254,143.563c4.866-0.243,4.759-18.053,4.347-27.665
						c-5.194,0.528-10.037,1.312-14.518,2.382C266.641,126.969,270.303,143.81,275.254,143.563z"/>
					<path style="fill:#B03B24;" d="M309.971,115.407c-1.006,9.885-1.719,26.206,4.284,27.822
						c4.172,1.123,8.194-14.219,10.548-25.405C320.257,116.565,315.313,115.74,309.971,115.407z"/>
				</g>
				<g>
					<path style="fill:#B03B24;" d="M221.961,174.667c-0.115,2.611-0.166,5.298-0.118,8.11c0.051,3.03,0.354,5.857,0.865,8.51
						c8.479-4.302,18.868-10.638,17.237-15.204C238.497,172.031,229.757,172.947,221.961,174.667z"/>
					<path style="fill:#B03B24;" d="M236.757,165.579c0.541-3.244-6.179-5.006-13.021-5.957c-0.744,3.613-1.262,7.485-1.569,11.609
						C228.879,170.553,236.183,169.023,236.757,165.579z"/>
				</g>
				<g>
					<path style="fill:#B03B24;" d="M366.49,171.332c-0.192-3.959-0.75-7.932-1.684-11.836c-7.155,0.918-14.538,2.688-13.972,6.082
						C351.438,169.206,359.507,170.71,366.49,171.332z"/>
					<path style="fill:#B03B24;" d="M364.351,191.016c1.425-5.145,2.172-10.601,2.207-16.14c-8.015-1.848-17.407-3.007-18.912,1.207
						C346.05,180.553,355.977,186.723,364.351,191.016z"/>
					<path style="fill:#B03B24;" d="M362.769,195.87c-5.676-3.309-11.984-5.668-13.345-2.456c-1.075,2.536,2.873,8.191,7.48,13.588
						C359.291,203.637,361.253,199.885,362.769,195.87z"/>
				</g>
				<path style="fill:none;stroke:#482725;stroke-width:2;stroke-miterlimit:10;" d="M344.997,127.433
					c0,0,16.421,14.652,18.442,27.789"/>
				<path style="fill:none;stroke:#482725;stroke-width:2;stroke-miterlimit:10;" d="M246.725,125.664
					c0,0-17.431,8.337-20.463,24.757"/>
				<path style="fill:#B03B24;" d="M224.005,196.353c1.418,4.315,3.496,8.064,6.106,11.319c4.847-5.593,9.174-11.617,8.055-14.258
					C236.739,190.047,229.877,192.801,224.005,196.353z"/>
				<path style="fill:none;stroke:#482725;stroke-width:2;stroke-miterlimit:10;" d="M227.239,202.551
					c0,0,9.671,24.647,52.413,23.087"/>
				<g>
					<path style="fill:#FFFFFF;" d="M267.352,186.816L267.352,186.816c-7.57,0.198-13.892-5.038-14.12-11.695l-0.22-6.382
						c-0.23-6.657,5.722-12.214,13.291-12.413l0,0c7.569-0.198,13.891,5.038,14.12,11.695l0.219,6.382
						C280.872,181.06,274.922,186.617,267.352,186.816"/>
					<path style="fill:#482725;" d="M280.422,168.021c-0.123-3.602-2.04-6.779-4.965-8.913c-1.093-0.316-2.241-0.479-3.426-0.448
						c-6.678,0.175-11.891,6.19-11.642,13.434c0.25,7.245,5.866,12.976,12.545,12.801c0.606-0.016,1.195-0.096,1.774-0.204
						c3.703-2.244,6.081-6.039,5.934-10.288L280.422,168.021z"/>
				</g>
				<g>
					<path style="fill:#FFFFFF;" d="M322.994,184.879L322.994,184.879c7.745,0.4,14.402-4.798,14.869-11.609l0.448-6.529
						c0.468-6.811-5.432-12.657-13.177-13.056l0,0c-7.744-0.4-14.401,4.798-14.869,11.609l-0.447,6.53
						C309.35,178.634,315.25,184.479,322.994,184.879"/>
					<path style="fill:#482725;" d="M310.267,165.293c0.252-3.686,2.326-6.889,5.395-8.999c1.131-0.295,2.312-0.432,3.524-0.369
						c6.833,0.353,11.96,6.647,11.452,14.059c-0.509,7.412-6.461,13.135-13.294,12.783c-0.62-0.032-1.221-0.129-1.809-0.256
						c-3.714-2.395-6.016-6.342-5.717-10.689L310.267,165.293z"/>
				</g>
				<path style="fill:none;stroke:#482725;stroke-width:2;stroke-miterlimit:10;" d="M319.424,225.318
					c0,0,39.676-2.626,44.052-31.507"/>
				
					<ellipse transform="matrix(0.9992 -0.0411 0.0411 0.9992 -7.5282 12.3098)" style="fill:#FFD080;" cx="295.531" cy="189.193" rx="20.72" ry="17.347"/>
				<g>
					<path style="fill:#482725;" d="M305.89,173.595c-1.661-5.061-20.149-4.837-20.46,1.107c-0.311,5.944,5.188,9.455,11.045,9.534
						C301.635,184.305,307.551,178.656,305.89,173.595z"/>
					<path style="fill:none;stroke:#F2FFEA;stroke-miterlimit:10;" d="M298.186,171.778c-1.72-0.144-3.896-0.104-6.118,0.52"/>
					<path style="fill:none;stroke:#F2FFEA;stroke-miterlimit:10;" d="M301.706,172.406c0,0-0.751-0.239-1.968-0.437"/>
				</g>
				<path style="fill:none;stroke:#482725;stroke-width:1.5;stroke-miterlimit:10;" d="M296.436,182.344
					c0,0-0.457,9.367,0.005,13.536"/>
				<g>
					<path style="fill:none;stroke:#482725;stroke-width:1.5;stroke-miterlimit:10;" d="M285.761,193.721
						c0,0,0.911,4.318,4.225,4.849c2.753,0.442,4.685-1.071,5.724-2.225c0.487-0.541,1.297-0.558,1.793-0.026
						c1.092,1.171,3.129,2.659,5.847,1.589c4.18-1.646,3.804-4.489,3.804-4.489"/>
					<path style="fill:none;stroke:#482725;stroke-miterlimit:10;" d="M285.008,194.902c0,0,0.214-1.877,2.182-1.316"/>
					<path style="fill:none;stroke:#482725;stroke-miterlimit:10;" d="M305.782,193.777c0,0,1.682-1.023,2.608,0.605"/>
				</g>
			</g>
		</g>
	</g>
	<g>
		<path style="fill:#FFD080;" d="M173.403,250.616H51.509c-11.749,0-21.274-9.525-21.274-21.274V107.449
			c0-11.749,9.525-21.274,21.274-21.274h121.894c11.749,0,21.274,9.525,21.274,21.274v121.894
			C194.677,241.092,185.152,250.616,173.403,250.616z"/>
		<g>
			<g>
				<path style="fill:#B03B24;" d="M121.078,213.725c-33.354-1.45-49.43,7.851-49.551,36.892h82.698
					C155.61,233.915,145.566,214.789,121.078,213.725z"/>
				<path style="fill:#FFD080;" d="M140.738,250.616c-2.749-12.604-13.903-22.039-27.253-22.039
					c-13.35,0-24.504,9.435-27.253,22.039H140.738z"/>
			</g>
			<g>
				<path style="fill:#B03B24;" d="M146.646,126.409c0,0-8.886-26.396,14.897-27.18c23.782-0.784,42.599,39.724,3.92,42.599"/>
				<path style="fill:#630F03;" d="M153.551,127.893c0,0-4.676-17.327,11.001-16.502c15.677,0.825,14.577,19.527-0.275,23.653
					L153.551,127.893z"/>
				<path style="fill:#B03B24;" d="M74.728,126.409c0,0,8.886-26.396-14.897-27.18c-23.782-0.784-42.599,39.724-3.92,42.599"/>
				<path style="fill:#630F03;" d="M67.823,127.893c0,0,4.676-17.327-11.001-16.502c-15.677,0.825-14.577,19.527,0.275,23.653
					L67.823,127.893z"/>
				<g>
					<path style="fill:#B03B24;" d="M37.727,182.725c-0.903-53.13,27.156-70.052,86.58-67.469
						c73.071,3.176,72.57,98.398,24.621,107.368C113.127,229.321,38.628,235.789,37.727,182.725z"/>
				</g>
				
					<ellipse transform="matrix(0.7071 -0.7071 0.7071 0.7071 -121.8025 100.9176)" style="fill:#FF7777;" cx="60.917" cy="197.487" rx="14.943" ry="14.943"/>
				<circle style="fill:#FF7777;" cx="157.772" cy="197.552" r="14.943"/>
				<path style="fill:none;stroke:#482725;stroke-width:2;stroke-linejoin:round;stroke-miterlimit:10;" d="M87.826,130.912
					c0,0,3.489,13.954,10.466,13.567c6.977-0.388,5.039-7.752,5.039-7.752s5.814,7.365,9.69,6.589
					c3.876-0.775,1.938-7.752,1.938-7.752s8.14,8.14,12.016,6.589c3.876-1.55-0.388-8.915-0.388-8.915"/>
				<path style="fill:none;stroke:#482725;stroke-width:2;stroke-miterlimit:10;" d="M43.123,202.499
					c0,0,9.672,24.647,52.414,23.087"/>
				<g>
					<path style="fill:#FFFFFF;" d="M83.236,186.764L83.236,186.764c-7.57,0.198-13.892-5.038-14.12-11.695l-0.22-6.382
						c-0.229-6.657,5.722-12.214,13.291-12.413l0,0c7.569-0.198,13.891,5.038,14.121,11.694l0.219,6.382
						C96.757,181.009,90.806,186.566,83.236,186.764"/>
					<path style="fill:#482725;" d="M96.306,167.97c-0.123-3.602-2.04-6.779-4.965-8.913c-1.093-0.316-2.241-0.479-3.426-0.448
						c-6.678,0.175-11.89,6.19-11.642,13.434c0.25,7.245,5.866,12.976,12.545,12.801c0.606-0.016,1.195-0.096,1.774-0.204
						c3.703-2.244,6.081-6.039,5.934-10.288L96.306,167.97z"/>
				</g>
				<g>
					<path style="fill:#FFFFFF;" d="M138.878,184.827L138.878,184.827c7.745,0.4,14.402-4.798,14.869-11.609l0.448-6.529
						c0.468-6.811-5.432-12.657-13.176-13.056l0,0c-7.744-0.4-14.401,4.798-14.869,11.609l-0.447,6.53
						C125.234,178.583,131.134,184.428,138.878,184.827"/>
					<path style="fill:#482725;" d="M126.151,165.242c0.252-3.686,2.326-6.889,5.395-8.999c1.131-0.295,2.312-0.432,3.524-0.369
						c6.833,0.353,11.96,6.647,11.452,14.059c-0.509,7.412-6.461,13.135-13.294,12.783c-0.62-0.032-1.22-0.129-1.809-0.256
						c-3.714-2.395-6.016-6.342-5.717-10.689L126.151,165.242z"/>
				</g>
				<path style="fill:none;stroke:#482725;stroke-width:2;stroke-miterlimit:10;" d="M135.309,225.266
					c0,0,39.675-2.626,44.051-31.507"/>
				
					<ellipse transform="matrix(0.9992 -0.0411 0.0411 0.9992 -7.7883 4.7523)" style="fill:#FFD080;" cx="111.676" cy="191.779" rx="28.302" ry="23.695"/>
				<g>
					<path style="fill:#482725;" d="M126.88,171.36c-2.501-7.621-30.34-7.283-30.808,1.667c-0.468,8.95,7.812,14.237,16.631,14.355
						C120.473,187.487,129.38,178.981,126.88,171.36z"/>
					<path style="fill:#300000;" d="M116.03,175.683c3.262-2.123,4.741,0.048,4.548,2.714c-0.097,1.341,1.444,2.806,3.001,3.933
						c-1.223,1.286-2.676,2.384-4.233,3.236C116.463,182.603,113.658,177.226,116.03,175.683z"/>
					<path style="fill:#300000;" d="M100.233,182.929c1.294-1.289,2.456-2.838,2.189-4.077c-0.562-2.614,0.601-4.969,4.126-3.32
						c2.55,1.192,0.554,6.851-1.871,10.193C103.014,185.013,101.511,184.071,100.233,182.929z"/>
					<path style="fill:none;stroke:#F2FFEA;stroke-miterlimit:10;" d="M115.278,168.625c-2.59-0.217-5.866-0.157-9.213,0.783"/>
					<path style="fill:none;stroke:#F2FFEA;stroke-miterlimit:10;" d="M120.58,169.57c0,0-1.131-0.359-2.963-0.657"/>
				</g>
				<path style="fill:none;stroke:#482725;stroke-width:1.5;stroke-miterlimit:10;" d="M112.354,184.707c0,0,0.242,3.24,0.093,6.509
					"/>
				<g>
					<path style="fill:none;stroke:#482725;stroke-width:1.5;stroke-miterlimit:10;" d="M101.645,188.596
						c0,0,0.911,4.318,4.225,4.849c2.753,0.442,4.685-1.071,5.724-2.225c0.487-0.541,1.297-0.558,1.793-0.026
						c1.092,1.171,3.129,2.659,5.847,1.589c4.18-1.646,3.804-4.49,3.804-4.49"/>
					<path style="fill:none;stroke:#482725;stroke-miterlimit:10;" d="M100.892,189.776c0,0,0.214-1.877,2.182-1.316"/>
					<path style="fill:none;stroke:#482725;stroke-miterlimit:10;" d="M121.666,188.652c0,0,1.682-1.023,2.608,0.605"/>
				</g>
			</g>
		</g>
	</g>
</g>
</svg>
